<svg xmlns="http://www.w3.org/2000/svg" viewBox="0 0 1200 400" width="1200" height="400">
  <path d="M 275.0,240.0 L 274.3,244.8 L 272.9,249.3 L 270.9,253.5 L 268.3,257.6 L 265.2,261.3 L 261.5,264.9 L 257.4,268.2 L 252.8,271.2 L 247.7,274.0 L 242.3,276.6 L 236.6,278.9 L 230.5,280.9 L 224.2,282.8 L 217.6,284.4 L 210.8,285.7 L 203.9,286.8 L 196.8,287.7 L 189.6,288.3 L 182.3,288.6 L 175.0,288.8 L 167.7,288.6 L 160.4,288.3 L 153.2,287.7 L 146.1,286.8 L 139.2,285.7 L 132.4,284.4 L 125.8,282.8 L 119.5,280.9 L 113.4,278.9 L 107.7,276.6 L 102.3,274.0 L 97.2,271.2 L 92.6,268.2 L 88.5,264.9 L 84.8,261.3 L 81.7,257.6 L 79.1,253.5 L 77.1,249.3 L 75.7,244.8 L 75.0,240.0 L 75.0,240.0 L 74.3,234.8 L 73.8,229.6 L 73.4,224.4 L 73.3,219.3 L 73.2,214.3 L 73.4,209.3 L 73.7,204.4 L 74.2,199.5 L 75.0,194.7 L 75.9,190.0 L 77.0,185.4 L 78.3,180.8 L 79.8,176.3 L 81.6,171.9 L 83.6,167.6 L 85.8,163.4 L 88.2,159.2 L 90.9,155.2 L 93.8,151.3 L 97.0,147.5 L 97.0,147.5 L 97.8,142.2 L 98.9,137.5 L 100.3,133.2 L 102.0,129.4 L 104.0,126.1 L 106.2,123.4 L 108.5,121.2 L 111.0,119.6 L 113.6,118.5 L 116.3,118.1 L 119.1,118.2 L 121.9,118.9 L 124.6,120.3 L 127.4,122.3 L 130.0,125.0 L 130.0,125.0 L 132.6,129.0 L 135.2,132.3 L 137.9,134.9 L 140.7,136.9 L 143.4,138.1 L 146.1,138.8 L 148.8,138.8 L 151.3,138.1 L 153.8,137.0 L 156.0,135.2 L 158.1,132.9 L 160.0,130.0 L 160.0,130.0 L 161.7,124.4 L 163.5,119.3 L 165.4,114.6 L 167.3,110.4 L 169.3,106.6 L 171.3,103.3 L 173.3,100.5 L 175.4,98.1 L 177.5,96.2 L 179.6,94.8 L 181.7,93.8 L 183.7,93.3 L 185.7,93.3 L 187.7,93.7 L 189.6,94.6 L 191.5,95.9 L 193.3,97.7 L 195.0,100.0 L 195.0,100.0 L 198.0,105.6 L 201.0,110.2 L 204.0,114.0 L 207.0,117.0 L 210.0,119.1 L 213.0,120.3 L 216.0,120.8 L 219.0,120.5 L 222.0,119.4 L 225.0,117.5 L 225.0,117.5 L 227.1,114.3 L 229.2,111.7 L 231.5,109.6 L 233.8,108.1 L 236.1,107.0 L 238.4,106.5 L 240.7,106.4 L 243.0,106.8 L 245.2,107.6 L 247.2,108.8 L 249.2,110.4 L 250.9,112.3 L 252.5,114.6 L 253.9,117.1 L 255.0,120.0 L 255.0,120.0 L 257.6,123.9 L 259.4,127.4 L 260.6,130.7 L 261.3,133.7 L 261.5,136.3 L 261.4,138.6 L 261.1,140.5 L 260.6,141.9 L 260.2,143.0 L 259.8,143.7 L 259.6,143.9 L 259.8,143.7 L 260.3,143.0 L 261.3,141.7 L 263.0,140.0 L 263.0,140.0 L 265.3,136.2 L 267.5,133.3 L 269.6,131.1 L 271.6,129.7 L 273.5,128.9 L 275.2,128.9 L 276.8,129.5 L 278.2,130.7 L 279.5,132.5 L 280.6,134.9 L 281.4,137.7 L 282.1,141.1 L 282.6,144.9 L 282.8,149.2 L 282.7,153.9 L 282.4,158.9 L 281.9,164.3 L 281.0,170.0 L 281.0,170.0 L 280.6,175.9 L 280.2,181.7 L 279.9,187.4 L 279.6,192.8 L 279.2,198.1 L 278.9,203.3 L 278.5,208.2 L 278.2,213.0 L 277.8,217.5 L 277.4,221.9 L 277.0,226.0 L 276.6,229.8 L 276.1,233.5 L 275.6,236.9 L 275.0,240.0 Z" fill="#00D2B9"/>
  <ellipse cx="137.5" cy="225.0" rx="14.5" ry="18.8" fill="#FFFFFF"/>
  <ellipse cx="212.5" cy="225.0" rx="14.5" ry="18.8" fill="#FFFFFF"/>
  <text x="380" y="210" font-family="Jura, sans-serif" font-size="72" font-weight="500" fill="#1E2328">ruah</text>
</svg>